<svg width="204" height="212" viewBox="0 0 204 212" fill="none" xmlns="http://www.w3.org/2000/svg">
<rect width="204" height="212" fill="#1E1E1E"/>
<g id="Dashboard" clip-path="url(#clip0_2243_45311)">
<rect width="1440" height="1855" transform="translate(-1081 -483)" fill="white"/>
<g id="Canvas">
<rect width="1180" height="2631" transform="translate(-821 -483)" fill="white"/>
<g id="content">
<g id="Frame 645148">
<g id="Frame 645147">
<rect x="-113.5" y="-79.5" width="430" height="402" rx="15.5" fill="white"/>
<g id="3.Mobile Mobile/Charts [Grid and Legend]/Donut Charts / Pie Chart">
<g id="graph">
<path id="Shape" fill-rule="evenodd" clip-rule="evenodd" d="M28.0265 176.957C10.0806 158.921 0 134.46 0 108.956H95.6863L28.0265 176.957Z" fill="#1789FC"/>
<path id="Shape_2" fill-rule="evenodd" clip-rule="evenodd" d="M33 47.5C48.4222 32.2941 74.1243 28 95.9316 28V109.537L33 47.5Z" fill="#37C89A"/>
<path id="Shape_3" fill-rule="evenodd" clip-rule="evenodd" d="M168.18 181.816C142.283 207.844 104.534 218.014 69.1535 208.488C51.7707 203.805 35.9155 194.603 23.1924 181.816L95.6864 108.956L168.18 181.816Z" fill="#FFCC00"/>
<path id="Shape_4" fill-rule="evenodd" clip-rule="evenodd" d="M6.93506 109.255C6.93506 86.048 16.285 63.7906 32.9304 47.3787L95.6865 109.255H6.93506Z" fill="#37C89A"/>
<path id="Shape_5" fill-rule="evenodd" clip-rule="evenodd" d="M95.6865 0.42627C134.38 0.42627 170.139 21.1743 189.488 54.8545C208.838 88.5348 208.838 130.031 189.488 163.711C184.755 171.952 178.966 179.528 172.272 186.255L95.6865 109.283V0.42627Z" fill="#E95E2A"/>
</g>
<g id="Pointer" clip-path="url(#clip1_2243_45311)" filter="url(#filter0_d_2243_45311)">
<g id="4.Elements /Bubble / Bottom">
<path id="BG" fill-rule="evenodd" clip-rule="evenodd" d="M170.223 69C167.891 69 166 70.8906 166 73.2227V93.0791L159.579 98.9406C158.662 99.7779 158.662 101.222 159.579 102.059L166 107.921V127.777C166 130.109 167.891 132 170.223 132H252.777C255.109 132 257 130.109 257 127.777V73.2227C257 70.8906 255.109 69 252.777 69H170.223Z" fill="white"/>
</g>
<g id="text">
<path id="Text" d="M181.422 90.9619C181.882 91.1989 182.244 91.5225 182.509 91.9326C182.773 92.3428 182.905 92.8031 182.905 93.3135C182.905 94.1566 182.563 94.8447 181.88 95.3779C181.201 95.9066 180.319 96.1709 179.234 96.1709C178.533 96.1709 177.858 96.0501 177.211 95.8086C176.568 95.5625 176.044 95.2298 175.639 94.8105L176.869 93.2109C177.133 93.4753 177.466 93.6872 177.867 93.8467C178.268 94.0016 178.674 94.0791 179.084 94.0791C179.553 94.0791 179.936 93.9788 180.232 93.7783C180.529 93.5778 180.677 93.3203 180.677 93.0059C180.677 92.6868 180.531 92.4248 180.239 92.2197C179.952 92.0146 179.585 91.9121 179.139 91.9121H177.765V90.0527H179.139C179.531 90.0527 179.847 89.973 180.089 89.8135C180.33 89.6494 180.451 89.4398 180.451 89.1846C180.451 88.9157 180.314 88.6947 180.041 88.5215C179.768 88.3438 179.41 88.2549 178.968 88.2549C178.626 88.2549 178.289 88.3118 177.956 88.4258C177.628 88.5397 177.35 88.6947 177.122 88.8906L175.974 87.3184C176.361 86.9674 176.846 86.6895 177.43 86.4844C178.013 86.2747 178.615 86.1699 179.234 86.1699C180.255 86.1699 181.085 86.4206 181.723 86.9219C182.361 87.4232 182.68 88.0703 182.68 88.8633C182.68 89.3053 182.568 89.7064 182.345 90.0664C182.126 90.4264 181.818 90.7249 181.422 90.9619ZM187.424 89.6836C188.363 89.6836 189.151 89.9889 189.789 90.5996C190.432 91.2057 190.753 91.9645 190.753 92.876C190.753 93.8193 190.4 94.6055 189.693 95.2344C188.992 95.8587 188.094 96.1709 187 96.1709C185.729 96.1709 184.578 95.7448 183.548 94.8926L184.607 93.1562C184.913 93.4479 185.264 93.6758 185.66 93.8398C186.057 93.9993 186.453 94.0791 186.85 94.0791C187.36 94.0791 187.768 93.9583 188.073 93.7168C188.379 93.4753 188.531 93.1768 188.531 92.8213C188.531 92.484 188.401 92.2061 188.142 91.9873C187.886 91.7686 187.558 91.6592 187.157 91.6592C186.647 91.6592 186.223 91.8278 185.886 92.165L183.965 91.5908L184.457 86.3408H190.083V88.3848H186.289L186.166 89.9365C186.526 89.7679 186.945 89.6836 187.424 89.6836ZM195.47 90.2715C195.005 90.7318 194.426 90.9619 193.733 90.9619C193.041 90.9619 192.462 90.7318 191.997 90.2715C191.532 89.8112 191.3 89.237 191.3 88.5488C191.3 87.8698 191.532 87.3047 191.997 86.8535C192.462 86.3978 193.041 86.1699 193.733 86.1699C194.426 86.1699 195.005 86.3978 195.47 86.8535C195.939 87.3047 196.174 87.8698 196.174 88.5488C196.174 89.237 195.939 89.8112 195.47 90.2715ZM192.277 96L199.277 86.3408H201.451L194.451 96H192.277ZM193.733 89.3076C193.943 89.3076 194.118 89.2347 194.26 89.0889C194.406 88.943 194.479 88.763 194.479 88.5488C194.479 88.3392 194.406 88.1637 194.26 88.0225C194.118 87.8812 193.943 87.8105 193.733 87.8105C193.519 87.8105 193.339 87.8812 193.193 88.0225C193.052 88.1637 192.981 88.3392 192.981 88.5488C192.981 88.763 193.052 88.943 193.193 89.0889C193.339 89.2347 193.519 89.3076 193.733 89.3076ZM199.995 96.1709C199.298 96.1709 198.717 95.9408 198.252 95.4805C197.787 95.0202 197.555 94.446 197.555 93.7578C197.555 93.0833 197.787 92.5182 198.252 92.0625C198.717 91.6068 199.298 91.3789 199.995 91.3789C200.688 91.3789 201.267 91.6068 201.731 92.0625C202.196 92.5182 202.429 93.0833 202.429 93.7578C202.429 94.446 202.196 95.0202 201.731 95.4805C201.267 95.9408 200.688 96.1709 199.995 96.1709ZM199.995 94.5303C200.205 94.5303 200.38 94.4551 200.521 94.3047C200.663 94.1543 200.733 93.972 200.733 93.7578C200.733 93.5482 200.663 93.375 200.521 93.2383C200.38 93.1016 200.205 93.0332 199.995 93.0332C199.781 93.0332 199.601 93.1016 199.455 93.2383C199.309 93.375 199.236 93.5482 199.236 93.7578C199.236 93.972 199.309 94.1543 199.455 94.3047C199.601 94.4551 199.781 94.5303 199.995 94.5303ZM208.937 98.6592C208.335 97.8662 207.85 96.8704 207.48 95.6719C207.116 94.4733 206.934 93.277 206.934 92.083C206.934 90.889 207.116 89.6927 207.48 88.4941C207.85 87.291 208.335 86.293 208.937 85.5H210.994C210.415 86.2884 209.951 87.2842 209.6 88.4873C209.249 89.6859 209.073 90.8844 209.073 92.083C209.073 93.2816 209.249 94.4801 209.6 95.6787C209.951 96.8773 210.415 97.8708 210.994 98.6592H208.937ZM211.808 86.3408H218.288V88.0498L214.747 96H212.307L215.725 88.3848H211.808V86.3408ZM222.588 89.6836C223.527 89.6836 224.315 89.9889 224.953 90.5996C225.596 91.2057 225.917 91.9645 225.917 92.876C225.917 93.8193 225.564 94.6055 224.857 95.2344C224.156 95.8587 223.258 96.1709 222.164 96.1709C220.893 96.1709 219.742 95.7448 218.712 94.8926L219.771 93.1562C220.077 93.4479 220.428 93.6758 220.824 93.8398C221.221 93.9993 221.617 94.0791 222.014 94.0791C222.524 94.0791 222.932 93.9583 223.237 93.7168C223.543 93.4753 223.695 93.1768 223.695 92.8213C223.695 92.484 223.565 92.2061 223.306 91.9873C223.05 91.7686 222.722 91.6592 222.321 91.6592C221.811 91.6592 221.387 91.8278 221.05 92.165L219.129 91.5908L219.621 86.3408H225.247V88.3848H221.453L221.33 89.9365C221.69 89.7679 222.109 89.6836 222.588 89.6836ZM230.545 96.1709C229.807 96.1709 229.148 95.9613 228.569 95.542C227.991 95.1182 227.539 94.5257 227.216 93.7646C226.897 93.0036 226.737 92.1377 226.737 91.167C226.737 90.1963 226.897 89.3304 227.216 88.5693C227.539 87.8083 227.991 87.2181 228.569 86.7988C229.148 86.3796 229.807 86.1699 230.545 86.1699C231.288 86.1699 231.949 86.3796 232.527 86.7988C233.111 87.2181 233.562 87.8083 233.881 88.5693C234.204 89.3258 234.366 90.1917 234.366 91.167C234.366 92.6436 234.011 93.8467 233.3 94.7764C232.589 95.7061 231.671 96.1709 230.545 96.1709ZM230.545 94.0791C231.019 94.0791 231.404 93.8079 231.7 93.2656C231.996 92.7233 232.145 92.0238 232.145 91.167C232.145 90.3102 231.996 89.6107 231.7 89.0684C231.404 88.526 231.019 88.2549 230.545 88.2549C230.085 88.2549 229.706 88.5283 229.41 89.0752C229.114 89.6175 228.966 90.3148 228.966 91.167C228.966 92.0192 229.114 92.7188 229.41 93.2656C229.706 93.8079 230.085 94.0791 230.545 94.0791ZM240.231 96L238.358 93.7031L237.825 94.2773V96H235.781V85.917H237.825V91.5225L240.177 88.8633H242.822L239.801 92.1514L242.918 96H240.231ZM242.679 98.6592C243.253 97.8662 243.715 96.8704 244.066 95.6719C244.417 94.4733 244.593 93.277 244.593 92.083C244.593 90.889 244.417 89.6927 244.066 88.4941C243.715 87.291 243.253 86.293 242.679 85.5H244.736C245.333 86.293 245.816 87.291 246.186 88.4941C246.555 89.6973 246.739 90.8936 246.739 92.083C246.739 93.2725 246.555 94.4688 246.186 95.6719C245.816 96.8704 245.333 97.8662 244.736 98.6592H242.679Z" fill="#505D6F"/>
<path id="Text_2" d="M190.019 108.341H191.605V118H190.327V110.289L187.052 115.97H186.341L183.06 110.289V118H181.775V108.341H183.395L186.704 114.083L190.019 108.341ZM199.671 110.863H200.875V118H199.671V116.715C199.366 117.171 198.972 117.528 198.489 117.788C198.01 118.043 197.479 118.171 196.896 118.171C196.226 118.171 195.618 118.009 195.071 117.686C194.524 117.357 194.096 116.909 193.786 116.339C193.48 115.765 193.328 115.129 193.328 114.432C193.328 113.734 193.48 113.101 193.786 112.531C194.096 111.957 194.524 111.508 195.071 111.185C195.618 110.856 196.226 110.692 196.896 110.692C197.479 110.692 198.01 110.822 198.489 111.082C198.972 111.337 199.366 111.693 199.671 112.148V110.863ZM197.122 117.009C197.851 117.009 198.457 116.763 198.94 116.271C199.428 115.778 199.671 115.165 199.671 114.432C199.671 113.698 199.428 113.085 198.94 112.593C198.457 112.101 197.851 111.854 197.122 111.854C196.388 111.854 195.777 112.101 195.29 112.593C194.802 113.085 194.558 113.698 194.558 114.432C194.558 115.165 194.802 115.778 195.29 116.271C195.777 116.763 196.388 117.009 197.122 117.009ZM202.925 118V107.917H204.128V118H202.925ZM213.179 114.432C213.179 114.5 213.168 114.678 213.145 114.965H207C207.123 115.594 207.421 116.102 207.895 116.489C208.374 116.872 208.957 117.063 209.645 117.063C210.155 117.063 210.625 116.956 211.053 116.742C211.482 116.523 211.817 116.243 212.058 115.901L212.885 116.612C212.525 117.095 212.058 117.476 211.484 117.754C210.914 118.032 210.288 118.171 209.604 118.171C208.487 118.171 207.558 117.811 206.815 117.091C206.072 116.371 205.701 115.475 205.701 114.404C205.701 113.712 205.862 113.083 206.186 112.518C206.514 111.948 206.965 111.501 207.54 111.178C208.114 110.854 208.752 110.692 209.454 110.692C210.151 110.692 210.784 110.854 211.354 111.178C211.924 111.501 212.37 111.95 212.694 112.524C213.017 113.094 213.179 113.73 213.179 114.432ZM209.44 111.8C208.82 111.8 208.285 111.993 207.833 112.381C207.382 112.764 207.1 113.26 206.986 113.871H211.901C211.787 113.251 211.504 112.752 211.053 112.374C210.602 111.991 210.064 111.8 209.44 111.8Z" fill="#505D6F"/>
</g>
<g id="cursor">
<path id="Vector" fill-rule="evenodd" clip-rule="evenodd" d="M153 119.015V103L164.591 114.619H157.81L157.399 114.743L153 119.015Z" fill="white"/>
<path id="Vector_2" fill-rule="evenodd" clip-rule="evenodd" d="M162.084 119.689L158.479 121.224L153.797 110.135L157.483 108.582L162.084 119.689Z" fill="white"/>
<path id="Vector_3" fill-rule="evenodd" clip-rule="evenodd" d="M160.751 119.009L158.907 119.783L155.807 112.409L157.648 111.634L160.751 119.009Z" fill="black"/>
<path id="Vector_4" fill-rule="evenodd" clip-rule="evenodd" d="M154 105.407V116.595L156.969 113.729L157.397 113.59H162.165L154 105.407Z" fill="black"/>
</g>
</g>
</g>
<rect x="-113.5" y="-79.5" width="430" height="402" rx="15.5" stroke="#EDEFF5"/>
</g>
</g>
</g>
</g>
</g>
<defs>
<filter id="filter0_d_2243_45311" x="115" y="35" width="180" height="140" filterUnits="userSpaceOnUse" color-interpolation-filters="sRGB">
<feFlood flood-opacity="0" result="BackgroundImageFix"/>
<feColorMatrix in="SourceAlpha" type="matrix" values="0 0 0 0 0 0 0 0 0 0 0 0 0 0 0 0 0 0 127 0" result="hardAlpha"/>
<feMorphology radius="2" operator="dilate" in="SourceAlpha" result="effect1_dropShadow_2243_45311"/>
<feOffset dy="4"/>
<feGaussianBlur stdDeviation="18"/>
<feColorMatrix type="matrix" values="0 0 0 0 0.6 0 0 0 0 0.6 0 0 0 0 0.6 0 0 0 0.24 0"/>
<feBlend mode="normal" in2="BackgroundImageFix" result="effect1_dropShadow_2243_45311"/>
<feBlend mode="normal" in="SourceGraphic" in2="effect1_dropShadow_2243_45311" result="shape"/>
</filter>
<clipPath id="clip0_2243_45311">
<rect width="1440" height="1855" fill="white" transform="translate(-1081 -483)"/>
</clipPath>
<clipPath id="clip1_2243_45311">
<rect width="104" height="64" fill="white" transform="translate(153 69)"/>
</clipPath>
</defs>
</svg>
