<svg width="24" height="25" viewBox="0 0 24 25" fill="none" xmlns="http://www.w3.org/2000/svg">
<path d="M17 10.5H19.5C20.33 10.5 21 11.17 21 12V19.5C21 20.05 20.7799 20.55 20.4099 20.91C20.0499 21.28 19.55 21.5 19 21.5C17.9 21.5 17 20.6 17 19.5V10.5Z" fill="url(#paint0_radial_3540_10910)"/>
<path opacity="0.4" d="M6 21.5C4 21.5 3 20.5 3 18.5V6.5C3 4.5 4 3.5 6 3.5H14C16 3.5 17 4.5 17 6.5V19.5C17 20.604 17.896 21.5 19 21.5H6Z" fill="url(#paint1_radial_3540_10910)"/>
<path d="M13.9998 9.25076H10.4998C10.0858 9.25076 9.74978 8.91476 9.74978 8.50076C9.74978 8.08676 10.0858 7.75076 10.4998 7.75076H13.9998C14.4138 7.75076 14.7498 8.08676 14.7498 8.50076C14.7498 8.91476 14.4138 9.25076 13.9998 9.25076ZM14.7498 12.5008C14.7498 12.0868 14.4138 11.7508 13.9998 11.7508H10.4998C10.0858 11.7508 9.74978 12.0868 9.74978 12.5008C9.74978 12.9148 10.0858 13.2508 10.4998 13.2508H13.9998C14.4138 13.2508 14.7498 12.9148 14.7498 12.5008ZM14.7498 16.5008C14.7498 16.0868 14.4138 15.7508 13.9998 15.7508H10.4998C10.0858 15.7508 9.74978 16.0868 9.74978 16.5008C9.74978 16.9148 10.0858 17.2508 10.4998 17.2508H13.9998C14.4138 17.2508 14.7498 16.9148 14.7498 16.5008ZM7.02981 9.53079L8.02981 8.53079C8.32281 8.23779 8.32281 7.76275 8.02981 7.46975C7.73681 7.17675 7.26177 7.17675 6.96877 7.46975L6.49783 7.94076C6.20383 7.67676 5.75077 7.68775 5.46877 7.96975C5.17577 8.26275 5.17577 8.73779 5.46877 9.03079L5.96877 9.53079C6.11477 9.67678 6.3068 9.75076 6.4988 9.75076C6.6908 9.75076 6.88381 9.67779 7.02981 9.53079ZM7.02981 13.5308L8.02981 12.5308C8.32281 12.2378 8.32281 11.7628 8.02981 11.4697C7.73681 11.1767 7.26177 11.1767 6.96877 11.4697L6.49783 11.9408C6.20383 11.6768 5.75077 11.6877 5.46877 11.9697C5.17577 12.2628 5.17577 12.7378 5.46877 13.0308L5.96877 13.5308C6.11477 13.6768 6.3068 13.7508 6.4988 13.7508C6.6908 13.7508 6.88381 13.6778 7.02981 13.5308ZM7.02981 17.5308L8.02981 16.5308C8.32281 16.2378 8.32281 15.7628 8.02981 15.4698C7.73681 15.1768 7.26177 15.1768 6.96877 15.4698L6.49783 15.9408C6.20383 15.6768 5.75077 15.6878 5.46877 15.9698C5.17577 16.2628 5.17577 16.7378 5.46877 17.0308L5.96877 17.5308C6.11477 17.6768 6.3068 17.7508 6.4988 17.7508C6.6908 17.7508 6.88381 17.6778 7.02981 17.5308Z" fill="url(#paint2_radial_3540_10910)"/>
<defs>
<radialGradient id="paint0_radial_3540_10910" cx="0" cy="0" r="1" gradientUnits="userSpaceOnUse" gradientTransform="translate(17 15.028) rotate(54.1516) scale(7.98449 74.1755)">
<stop stop-color="#E73C01"/>
<stop offset="0.697917" stop-color="#0512D2"/>
</radialGradient>
<radialGradient id="paint1_radial_3540_10910" cx="0" cy="0" r="1" gradientUnits="userSpaceOnUse" gradientTransform="translate(3 10.9095) rotate(29.5189) scale(21.4943 180.353)">
<stop stop-color="#E73C01"/>
<stop offset="0.697917" stop-color="#0512D2"/>
</radialGradient>
<radialGradient id="paint2_radial_3540_10910" cx="0" cy="0" r="1" gradientUnits="userSpaceOnUse" gradientTransform="translate(5.24902 11.5725) rotate(29.086) scale(12.7093 105.661)">
<stop stop-color="#E73C01"/>
<stop offset="0.697917" stop-color="#0512D2"/>
</radialGradient>
</defs>
</svg>
