<svg width="24" height="25" viewBox="0 0 24 25" fill="none" xmlns="http://www.w3.org/2000/svg">
<path opacity="0.4" d="M17.235 14.76C16.37 13.724 15.002 13 13 13H11H9C4.94 13 3.5 15.97 3.5 18.52C3.5 20.8 4.71 22 7 22H11H14.24C14.47 22 14.602 21.756 14.496 21.552C14.179 20.934 13.999 20.236 13.999 19.5C13.999 17.504 15.283 15.8181 17.075 15.2271C17.277 15.1611 17.37 14.922 17.235 14.76Z" fill="url(#paint0_radial_3540_8143)"/>
<path d="M11.0088 11C13.2179 11 15.0088 9.20914 15.0088 7C15.0088 4.79086 13.2179 3 11.0088 3C8.79965 3 7.00879 4.79086 7.00879 7C7.00879 9.20914 8.79965 11 11.0088 11Z" fill="url(#paint1_radial_3540_8143)"/>
<path d="M18.3328 21.9168C18.1408 21.9168 17.9488 21.8438 17.8028 21.6968L16.4698 20.3638C16.1768 20.0708 16.1768 19.5958 16.4698 19.3028C16.7628 19.0098 17.2378 19.0098 17.5308 19.3028L18.3338 20.1057L20.4707 17.9698C20.7637 17.6768 21.2388 17.6768 21.5318 17.9698C21.8248 18.2628 21.8248 18.7378 21.5318 19.0308L18.8648 21.6978C18.7168 21.8428 18.5248 21.9168 18.3328 21.9168Z" fill="url(#paint2_radial_3540_8143)"/>
<defs>
<radialGradient id="paint0_radial_3540_8143" cx="0" cy="0" r="1" gradientUnits="userSpaceOnUse" gradientTransform="translate(3.5 16.7047) rotate(18.1737) scale(16.9775 98.4586)">
<stop stop-color="#E73C01"/>
<stop offset="0.697917" stop-color="#0512D2"/>
</radialGradient>
<radialGradient id="paint1_radial_3540_8143" cx="0" cy="0" r="1" gradientUnits="userSpaceOnUse" gradientTransform="translate(7.00879 6.29311) rotate(26.716) scale(10.4698 82.2803)">
<stop stop-color="#E73C01"/>
<stop offset="0.697917" stop-color="#0512D2"/>
</radialGradient>
<radialGradient id="paint2_radial_3540_8143" cx="0" cy="0" r="1" gradientUnits="userSpaceOnUse" gradientTransform="translate(16.25 19.4652) rotate(20.8664) scale(6.88276 44.8305)">
<stop stop-color="#E73C01"/>
<stop offset="0.697917" stop-color="#0512D2"/>
</radialGradient>
</defs>
</svg>
