<svg width="24" height="25" viewBox="0 0 24 25" fill="none" xmlns="http://www.w3.org/2000/svg">
<path opacity="0.4" fill-rule="evenodd" clip-rule="evenodd" d="M19.5127 19.4483L20.9678 11.4652C21.0978 10.7512 20.8307 10.0233 20.2707 9.56229L13.5887 4.06925C12.6657 3.31025 11.3347 3.31025 10.4117 4.06925L3.7307 9.56229C3.1697 10.0233 2.9028 10.7512 3.0338 11.4652L4.48876 19.4473C4.70576 20.6353 5.74074 21.4993 6.94774 21.4993H17.0537C18.2607 21.5003 19.2957 20.6363 19.5127 19.4483Z" fill="url(#paint0_radial_3542_1156)"/>
<path d="M14.5 15.113C14.5 14.084 13.81 13.188 12.818 12.933L11.551 12.614C11.393 12.573 11.256 12.4819 11.152 12.3459C11.053 12.2199 11 12.056 11 11.887C11 11.474 11.325 11.139 11.725 11.139H12.276C12.645 11.139 12.9549 11.4251 12.9969 11.8051C13.0429 12.2171 13.424 12.511 13.824 12.468C14.236 12.423 14.5331 12.051 14.4871 11.64C14.3791 10.663 13.665 9.89695 12.751 9.69495V9.5C12.751 9.086 12.415 8.75 12.001 8.75C11.587 8.75 11.251 9.086 11.251 9.5V9.69299C10.252 9.91399 9.50098 10.812 9.50098 11.887C9.50098 12.389 9.66694 12.879 9.96594 13.262C10.2679 13.657 10.699 13.942 11.183 14.067L12.45 14.386C12.774 14.47 13.002 14.769 13.002 15.113C13.002 15.313 12.925 15.502 12.783 15.645C12.646 15.784 12.467 15.861 12.277 15.861H11.726C11.357 15.861 11.047 15.5749 11.005 15.1949C10.959 14.7829 10.579 14.488 10.178 14.532C9.76598 14.577 9.46901 14.949 9.51501 15.36C9.62301 16.337 10.337 17.1031 11.251 17.3051V17.5C11.251 17.914 11.587 18.25 12.001 18.25C12.415 18.25 12.751 17.914 12.751 17.5V17.307C13.165 17.216 13.546 17.009 13.851 16.698C14.27 16.273 14.5 15.71 14.5 15.113Z" fill="url(#paint1_radial_3542_1156)"/>
<defs>
<radialGradient id="paint0_radial_3542_1156" cx="0" cy="0" r="1" gradientUnits="userSpaceOnUse" gradientTransform="translate(3.00098 10.9092) rotate(26.7161) scale(23.556 185.123)">
<stop stop-color="#E73C01"/>
<stop offset="0.697917" stop-color="#0512D2"/>
</radialGradient>
<radialGradient id="paint1_radial_3542_1156" cx="0" cy="0" r="1" gradientUnits="userSpaceOnUse" gradientTransform="translate(9.50098 12.6606) rotate(43.7249) scale(8.08661 79.049)">
<stop stop-color="#E73C01"/>
<stop offset="0.697917" stop-color="#0512D2"/>
</radialGradient>
</defs>
</svg>
